# File created by Blade
# Date/Time:  Thu Sep 25 18:39:44 2014
# Frame Rate: 120.000 fps
#------------------------------------------------------
:FULLY-SPECIFIED
:DEGREES
1875
root -0.726016 33.008802 -3.335840 6.770798 0.554542 -2.290129
Spine -9.952111 -10.974178 7.676980
Head -17.160466 12.785582 0.712297
LeftShoulder 20.912349 -31.493779 31.682661
LeftArm 103.247282 31.988680 -60.888640
LeftForeArm -7.093500 -0.000000 121.067796
LeftHand -15.726861 0.000000 -39.909453
LeftHandThumb1 -26.253704 0.000000 33.147579
RightShoulder 2.847659 34.670676 -22.497642
RightArm 31.207874 -25.611666 100.037739
RightForeArm 14.922955 -0.000000 120.476426
RightHand 4.155177 -0.000000 44.615441
RightHandThumb1 -24.326973 -0.000000 -32.862282
LeftUpLeg -1.802276 8.788736 2.413824
LeftLeg -0.252459 -0.000000 0.000000
LeftFoot -10.336585 2.343398 -9.532135
LeftToeBase 10.032661 -0.000000 -0.000000
RightUpLeg -3.576471 -4.082770 0.979823
RightLeg 2.491501 -0.000000 -0.000000
RightFoot -7.294587 -1.246257 0.498091
RightToeBase -0.578029 -0.000000 0.000000
1876
root -0.722951 33.010425 -3.342285 6.733621 0.560667 -2.284702
Spine -9.927635 -10.961718 7.739927
Head -17.061768 12.748995 0.516165
LeftShoulder 20.882547 -31.528218 31.959153
LeftArm 102.469644 31.957445 -61.433342
LeftForeArm -7.671621 -0.000000 121.525229
LeftHand -16.437810 -0.000000 -39.915090
LeftHandThumb1 -26.253704 0.000000 33.147579
RightShoulder 2.828405 33.837412 -22.311188
RightArm 32.317932 -26.137908 99.319108
RightForeArm 15.783354 0.000000 118.863134
RightHand 4.133864 -0.000000 44.210277
RightHandThumb1 -24.326973 -0.000000 -32.862282
LeftUpLeg -1.772329 8.800217 2.405440
LeftLeg -0.267465 -0.000000 0.000000
LeftFoot -10.305731 2.335842 -9.553820
LeftToeBase 9.988284 -0.000000 -0.000000
RightUpLeg -3.546981 -4.060269 0.966101
RightLeg 2.484045 -0.000000 -0.000000
RightFoot -7.270900 -1.271502 0.512068
RightToeBase -0.590281 -0.000000 0.000000
1877
root -0.720021 33.012829 -3.348273 6.686695 0.559997 -2.282006
Spine -9.910728 -10.939122 7.785626
Head -16.843425 12.699316 0.430345
LeftShoulder 20.593276 -30.909664 32.030302
LeftArm 102.376641 31.663347 -61.410821
LeftForeArm -8.838798 -0.000000 121.679994
LeftHand -17.221515 -0.000000 -39.779136
LeftHandThumb1 -26.253704 0.000000 33.147579
RightShoulder 2.868809 33.070291 -22.103029
RightArm 33.273525 -26.584000 98.686622
RightForeArm 16.318483 0.000000 117.155482
RightHand 4.455027 -0.000000 43.754924
RightHandThumb1 -24.326973 -0.000000 -32.862282
LeftUpLeg -1.734957 8.856483 2.402942
LeftLeg -0.269102 -0.000000 0.000000
LeftFoot -10.270175 2.284585 -9.548734
LeftToeBase 10.035089 -0.000000 -0.000000
RightUpLeg -3.510321 -4.045158 0.957429
RightLeg 2.477739 -0.000000 -0.000000
RightFoot -7.235271 -1.294019 0.489085
RightToeBase -0.635334 -0.000000 0.000000
1878
root -0.716181 33.015717 -3.354999 6.637129 0.549105 -2.276593
Spine -9.935196 -10.912619 7.824575
Head -16.463448 12.668655 0.406428
LeftShoulder 20.401053 -30.177003 32.178650
LeftArm 102.191071 31.268496 -61.548146
LeftForeArm -10.685109 -0.000000 121.852544
LeftHand -18.251032 -0.000000 -39.911313
LeftHandThumb1 -26.253704 0.000000 33.147579
RightShoulder 3.071215 32.451837 -21.865269
RightArm 33.945247 -26.841079 98.205153
RightForeArm 16.697201 -0.000000 115.407315
RightHand 4.311238 -0.000000 43.402197
RightHandThumb1 -24.326973 -0.000000 -32.862282
LeftUpLeg -1.688891 8.866984 2.394177
LeftLeg -0.288812 -0.000000 0.000000
LeftFoot -10.217052 2.294187 -9.537573
LeftToeBase 9.988063 -0.000000 -0.000000
RightUpLeg -3.477265 -4.014477 0.939445
RightLeg 2.486341 -0.000000 -0.000000
RightFoot -7.209835 -1.320125 0.494265
RightToeBase -0.610170 -0.000000 0.000000
1879
root -0.712347 33.018503 -3.360522 6.575580 0.529672 -2.268539
Spine -9.944943 -11.015967 7.903326
Head -16.109918 12.769717 0.290086
LeftShoulder 20.173718 -29.769095 32.308309
LeftArm 101.591959 30.904399 -61.936752
LeftForeArm -12.548676 -0.000000 121.997918
LeftHand -18.911450 -0.000000 -39.816395
LeftHandThumb1 -26.253704 0.000000 33.147579
RightShoulder 3.377435 31.874675 -21.559986
RightArm 34.672118 -27.157495 97.678965
RightForeArm 16.819410 -0.000000 113.514592
RightHand 4.220193 -0.000000 42.884771
RightHandThumb1 -24.326973 -0.000000 -32.862282
LeftUpLeg -1.635753 8.931397 2.384622
LeftLeg -0.287273 -0.000000 0.000000
LeftFoot -10.180221 2.241984 -9.540917
LeftToeBase 10.030743 -0.000000 -0.000000
RightUpLeg -3.425612 -3.981915 0.920378
RightLeg 2.479058 -0.000000 -0.000000
RightFoot -7.170173 -1.343038 0.493591
RightToeBase -0.641941 -0.000000 0.000000
1880
root -0.709660 33.020516 -3.365222 6.518935 0.495781 -2.278439
Spine -9.924250 -10.834438 7.921948
Head -15.816653 12.634405 0.281259
LeftShoulder 20.278538 -29.659613 32.363396
LeftArm 100.806469 30.550388 -62.389783
LeftForeArm -13.910656 0.000000 122.212250
LeftHand -19.542302 -0.000000 -39.363093
LeftHandThumb1 -26.253704 0.000000 33.147579
RightShoulder 3.329016 31.104263 -21.419242
RightArm 35.504908 -27.423772 97.154602
RightForeArm 16.683771 -0.000000 111.485220
RightHand 4.446378 0.000000 42.669051
RightHandThumb1 -24.326973 -0.000000 -32.862282
LeftUpLeg -1.578915 8.987502 2.396704
LeftLeg -0.289911 -0.000000 0.000000
LeftFoot -10.162539 2.196145 -9.567332
LeftToeBase 10.024430 -0.000000 -0.000000
RightUpLeg -3.380980 -3.952236 0.921254
RightLeg 2.478615 -0.000000 -0.000000
RightFoot -7.142594 -1.349324 0.503084
RightToeBase -0.603794 -0.000000 0.000000
1881
root -0.707011 33.022797 -3.369099 6.467569 0.448384 -2.274780
Spine -9.894084 -10.554834 7.870612
Head -15.536437 12.446642 0.389402
LeftShoulder 20.459017 -29.624830 32.339921
LeftArm 100.011788 30.269387 -62.847569
LeftForeArm -15.070251 -0.000000 122.313616
LeftHand -20.079097 -0.000000 -38.893509
LeftHandThumb1 -26.253704 0.000000 33.147579
RightShoulder 3.146301 30.751045 -21.432845
RightArm 35.766060 -27.618790 96.923145
RightForeArm 16.662735 -0.000000 109.407835
RightHand 4.470674 -0.000000 42.050082
RightHandThumb1 -24.326973 -0.000000 -32.862282
LeftUpLeg -1.526586 9.048898 2.392365
LeftLeg -0.294172 -0.000000 0.000000
LeftFoot -10.125638 2.186342 -9.546435
LeftToeBase 9.995824 -0.000000 -0.000000
RightUpLeg -3.341758 -3.931019 0.904749
RightLeg 2.474824 -0.000000 -0.000000
RightFoot -7.119686 -1.340972 0.483253
RightToeBase -0.553452 -0.000000 0.000000
1882
root -0.703598 33.025123 -3.374128 6.391938 0.389056 -2.265627
Spine -9.887061 -10.605937 7.950295
Head -15.161864 12.559632 0.242977
LeftShoulder 20.064437 -28.574219 32.451382
LeftArm 100.053513 29.642141 -62.714863
LeftForeArm -16.166906 0.000000 122.354875
LeftHand -20.483581 -0.000000 -37.979869
LeftHandThumb1 -26.253704 0.000000 33.147579
RightShoulder 3.430692 30.379241 -21.276635
RightArm 36.184923 -27.790104 96.636059
RightForeArm 16.514107 -0.000000 107.126327
RightHand 4.503539 -0.000000 41.515750
RightHandThumb1 -24.326973 -0.000000 -32.862282
LeftUpLeg -1.453994 9.074077 2.383158
LeftLeg -0.294920 -0.000000 0.000000
LeftFoot -10.094381 2.215281 -9.586327
LeftToeBase 9.961470 -0.000000 -0.000000
RightUpLeg -3.283064 -3.895191 0.880468
RightLeg 2.478629 -0.000000 -0.000000
RightFoot -7.081990 -1.326221 0.493270
RightToeBase -0.610844 -0.000000 0.000000
1883
root -0.701031 33.027124 -3.378248 6.325877 0.325600 -2.255845
Spine -9.896331 -10.400463 7.927981
Head -14.719020 12.459425 0.308857
LeftShoulder 19.873236 -27.762529 32.487981
LeftArm 99.971102 29.053525 -62.603473
LeftForeArm -17.065287 -0.000000 122.240346
LeftHand -20.486663 -0.000000 -37.006974
LeftHandThumb1 -26.253704 0.000000 33.147579
RightShoulder 3.426919 29.775417 -21.170942
RightArm 36.734435 -27.969218 96.234158
RightForeArm 16.286623 -0.000000 104.696678
RightHand 4.652543 -0.000000 40.609689
RightHandThumb1 -24.326973 -0.000000 -32.862282
LeftUpLeg -1.388855 9.109768 2.376189
LeftLeg -0.285573 -0.000000 0.000000
LeftFoot -10.084159 2.225290 -9.587311
LeftToeBase 9.980101 -0.000000 -0.000000
RightUpLeg -3.230269 -3.866454 0.857142
RightLeg 2.479664 -0.000000 -0.000000
RightFoot -7.071370 -1.297450 0.473586
RightToeBase -0.594678 -0.000000 0.000000
1884
root -0.699322 33.028516 -3.383708 6.243075 0.253083 -2.252160
Spine -9.890136 -10.407078 7.989273
Head -14.305319 12.598571 0.233936
LeftShoulder 19.565194 -27.082338 32.521724
LeftArm 99.587903 28.483223 -62.617640
LeftForeArm -17.757568 -0.000000 122.267914
LeftHand -20.805602 -0.000000 -35.804281
LeftHandThumb1 -26.253704 0.000000 33.147579
RightShoulder 3.675010 29.943570 -21.098339
RightArm 36.457589 -27.992357 96.352564
RightForeArm 16.089269 -0.000000 102.133990
RightHand 4.588421 -0.000000 39.941728
RightHandThumb1 -24.326973 -0.000000 -32.862282
LeftUpLeg -1.316179 9.140887 2.378942
LeftLeg -0.259375 -0.000000 0.000000
LeftFoot -10.087243 2.245516 -9.627433
LeftToeBase 9.982364 -0.000000 -0.000000
RightUpLeg -3.167304 -3.845222 0.839678
RightLeg 2.488534 -0.000000 -0.000000
RightFoot -7.046173 -1.214430 0.507046
RightToeBase -0.613179 -0.000000 0.000000
1885
root -0.695263 33.028899 -3.390057 6.153405 0.186943 -2.229183
Spine -9.841664 -10.377498 7.996356
Head -13.931670 12.666680 0.247637
LeftShoulder 19.213460 -26.295562 32.569204
LeftArm 99.405953 27.870693 -62.451190
LeftForeArm -17.870304 -0.000000 122.253249
LeftHand -20.784662 0.000000 -34.409590
LeftHandThumb1 -26.253704 0.000000 33.147579
RightShoulder 3.793043 29.655360 -20.979158
RightArm 36.791722 -28.152688 96.094830
RightForeArm 15.697026 -0.000000 99.407081
RightHand 4.611512 0.000000 38.904870
RightHandThumb1 -24.326973 -0.000000 -32.862282
LeftUpLeg -1.237412 9.136577 2.357290
LeftLeg -0.241998 -0.000000 0.000000
LeftFoot -10.084258 2.306295 -9.621354
LeftToeBase 9.961899 -0.000000 -0.000000
RightUpLeg -3.108703 -3.813604 0.805169
RightLeg 2.519758 -0.000000 -0.000000
RightFoot -7.049519 -1.237576 0.433772
RightToeBase -0.667549 -0.000000 0.000000
1886
root -0.693241 33.028797 -3.396240 6.071251 0.132188 -2.214514
Spine -9.770659 -10.231967 7.981283
Head -13.673592 12.637593 0.256992
LeftShoulder 18.577442 -25.133187 32.774213
LeftArm 99.800843 27.275789 -61.995842
LeftForeArm -17.415147 -0.000000 121.835071
LeftHand -19.539111 -0.000000 -33.357601
LeftHandThumb1 -26.253704 0.000000 33.147579
RightShoulder 3.681765 29.389925 -20.981037
RightArm 37.049447 -28.347660 95.877795
RightForeArm 15.246174 -0.000000 96.578851
RightHand 4.683131 -0.000000 37.834107
RightHandThumb1 -24.326973 -0.000000 -32.862282
LeftUpLeg -1.169939 9.097745 2.347144
LeftLeg -0.218921 -0.000000 0.000000
LeftFoot -10.101101 2.392679 -9.625385
LeftToeBase 9.961384 -0.000000 -0.000000
RightUpLeg -3.055666 -3.821734 0.780239
RightLeg 2.545665 -0.000000 -0.000000
RightFoot -7.053964 -1.180931 0.389649
RightToeBase -0.671153 -0.000000 0.000000
1887
root -0.691602 33.028698 -3.402678 5.987339 0.087348 -2.199201
Spine -9.755779 -10.115639 7.950095
Head -13.252076 12.623926 0.350029
LeftShoulder 18.350831 -24.345988 32.894179
LeftArm 99.458337 26.625685 -62.051507
LeftForeArm -17.952619 -0.000000 121.734212
LeftHand -19.302595 -0.000000 -32.365386
LeftHandThumb1 -26.253704 0.000000 33.147579
RightShoulder 3.680467 29.713617 -20.913205
RightArm 36.576677 -28.426275 95.966137
RightForeArm 14.660405 0.000000 93.688757
RightHand 4.752858 -0.000000 36.421759
RightHandThumb1 -24.326973 -0.000000 -32.862282
LeftUpLeg -1.107363 9.097156 2.337944
LeftLeg -0.179758 -0.000000 0.000000
LeftFoot -10.128206 2.420054 -9.649053
LeftToeBase 10.003516 -0.000000 -0.000000
RightUpLeg -2.996090 -3.839512 0.751221
RightLeg 2.570838 -0.000000 -0.000000
RightFoot -7.086767 -1.097860 0.419766
RightToeBase -0.557716 -0.000000 0.000000
